HIERARCHY
ROOT Hips
{
  OFFSET -2.26925 106.645 -9.91135
  CHANNELS 6 Xposition Yposition Zposition Zrotation Xrotation Yrotation
  JOINT ToSpine
  {
    OFFSET -2.69724 7.43032 -0.144315
    CHANNELS 3 Zrotation Xrotation Yrotation
    JOINT Spine
    {
      OFFSET -0.0310711 10.7595 1.96963
      CHANNELS 3 Zrotation Xrotation Yrotation
      JOINT Spine1
      {
        OFFSET 19.9056 3.91189 0.764692
        CHANNELS 3 Zrotation Xrotation Yrotation
        JOINT Neck
        {
          OFFSET 25.9749 7.03908 -0.130764
          CHANNELS 3 Zrotation Xrotation Yrotation
          JOINT Head
          {
            OFFSET 9.52751 0.295786 -0.907742
            CHANNELS 3 Zrotation Xrotation Yrotation
            End Site
            {
              OFFSET 16.4037 0.713936 2.7358
            }
          }
        }
        JOINT LeftShoulder
        {
          OFFSET 17.7449 4.33886 11.7777
          CHANNELS 3 Zrotation Xrotation Yrotation
          JOINT LeftArm
          {
            OFFSET 0.911315 1.27913 9.80584
            CHANNELS 3 Zrotation Xrotation Yrotation
            JOINT LeftForeArm
            {
              OFFSET 28.6126 1.18197 -3.53199
              CHANNELS 3 Zrotation Xrotation Yrotation
              JOINT LeftHand
              {
                OFFSET 27.5088 0.0218783 0.327423
                CHANNELS 3 Zrotation Xrotation Yrotation
                End Site
                {
                  OFFSET 18.6038 -0.000155887 0.382096
                }
              }
            }
          }
        }
        JOINT RightShoulder
        {
          OFFSET 17.1009 2.89543 -12.2328
          CHANNELS 3 Zrotation Xrotation Yrotation
          JOINT RightArm
          {
            OFFSET 1.4228 0.178766 -10.211
            CHANNELS 3 Zrotation Xrotation Yrotation
            JOINT RightForeArm
            {
              OFFSET 28.733 1.87905 2.64907
              CHANNELS 3 Zrotation Xrotation Yrotation
              JOINT RightHand
              {
                OFFSET 27.4588 0.290562 -0.101845
                CHANNELS 3 Zrotation Xrotation Yrotation
                End Site
                {
                  OFFSET 17.8396 -0.255518 -0.000602873
                }
              }
            }
          }
        }
      }
    }
  }
  JOINT LeftUpLeg
  {
    OFFSET -5.61296 -2.22332 -10.2353
    CHANNELS 3 Zrotation Xrotation Yrotation
    JOINT LeftLeg
    {
      OFFSET 2.56703 -44.7417 -7.93097
      CHANNELS 3 Zrotation Xrotation Yrotation
      JOINT LeftFoot
      {
        OFFSET 3.16933 -46.5642 -3.96578
        CHANNELS 3 Zrotation Xrotation Yrotation
        JOINT LeftToeBase
        {
          OFFSET 0.346054 -6.02161 12.8035
          CHANNELS 3 Zrotation Xrotation Yrotation
          End Site
          {
            OFFSET 0.134235 -1.35082 5.13018
          }
        }
      }
    }
  }
  JOINT RightUpLeg
  {
    OFFSET -5.7928 -1.72406 10.6446
    CHANNELS 3 Zrotation Xrotation Yrotation
    JOINT RightLeg
    {
      OFFSET -2.57161 -44.7178 -7.85259
      CHANNELS 3 Zrotation Xrotation Yrotation
      JOINT RightFoot
      {
        OFFSET -3.10148 -46.5936 -4.03391
        CHANNELS 3 Zrotation Xrotation Yrotation
        JOINT RightToeBase
        {
          OFFSET -0.0828122 -6.13587 12.8035
          CHANNELS 3 Zrotation Xrotation Yrotation
          End Site
          {
            OFFSET -0.131328 -1.35082 5.13018
          }
        }
      }
    }
  }
}
MOTION
Frames:	11
Frame Time:	0.0333333
-2.38567 106.684 -10.0222 16.6065 -71.8411 -72.7957 -70.1915 0 88.8779 68.7114 70.0811 16.1924 5.1408 19.186 5.77455 -152.57 22.8438 177.817 -164.731 62.2767 -174.322 2.66182 -2.5344 -34.3643 -105.365 49.4532 -90.1236 -15.5281 47.7904 11.1808 8.94571 -0.502705 -4.58542 0.305769 -0.956493 47.7166 -82.7602 -33.6355 90.8732 -6.7343 -6.99741 10.1181 12.6505 -0.387397 -4.04179 -58.2492 -0.854023 95.7447 2.38885 17.1265 -2.37307 4.06993 -3.23398 -0.722072 -0.409942 -0.0391758 4.0168 -60.4416 3.26062 81.982 -1.11764 16.2381 -2.34802 -5.93483 -3.17181 0.961071 -0.0927972 -1.18557 -1.0509 
-2.38398 106.663 -10.0211 16.4895 -71.7887 -72.8164 -70.1915 0 88.8779 68.367 70.1028 16.7105 5.25673 19.2859 5.65238 -152.489 22.9075 177.502 -164.352 62.3272 -174.73 2.62462 -2.69701 -34.3444 -104.879 49.4242 -90.6461 -15.6589 47.5713 11.1327 9.02447 -0.50288 -4.53431 0.336593 -1.05012 47.6265 -83.0939 -33.7729 90.6751 -6.59209 -7.69799 10.0891 13.1284 -0.357022 -3.62305 -58.0804 -0.707726 95.8085 2.35819 17.3091 -2.39289 4.08761 -3.41177 -0.730236 -0.351506 0.0652724 3.79908 -60.3842 3.40501 82.0811 -1.15576 16.214 -2.47866 -5.92786 -3.17038 0.95781 -0.090943 -1.19091 -1.04971 
-2.3566 106.656 -9.96006 17.0375 -71.8756 -72.1765 -70.1915 0 88.8779 68.3696 70.0106 16.7184 5.43243 19.1704 5.73279 -151.749 22.705 177.058 -162.699 62.0413 -175.196 2.62867 -2.6871 -34.3722 -104.601 49.3994 -90.678 -15.7072 46.9432 10.999 9.09022 -0.531387 -4.83547 0.355906 -1.10927 47.5483 -83.092 -33.6996 90.7595 -6.51565 -8.08133 10.0844 13.3719 -0.385793 -3.81763 -58.3384 -0.594759 95.9114 2.29611 16.9805 -2.09832 3.85095 -3.59364 -0.715775 -0.0558563 0.494714 2.40005 -60.6488 3.48095 82.0587 -1.16212 16.0696 -2.62909 -5.90835 -3.16486 0.949858 -0.0885566 -1.15987 -1.02245 
-2.3492 106.654 -9.93052 16.6391 -71.9737 -72.5879 -70.1915 0 88.8779 68.4592 70.0081 16.7183 5.42491 19.1707 5.69537 -151.758 22.6933 177.187 -162.209 61.9827 -175.695 2.65382 -2.61026 -34.4926 -104.468 49.2916 -90.7115 -15.5827 45.7151 10.751 10.0919 -0.639234 -5.38213 0.345547 -1.07898 47.4488 -82.9003 -33.7381 90.8227 -6.46181 -8.15236 10.1656 13.5948 -0.362458 -3.55262 -58.4497 -0.661591 95.8375 2.42483 16.9383 -1.90115 3.73296 -3.60032 -0.705499 -0.057716 0.481663 2.36953 -60.7237 3.43416 81.9885 -1.0838 16.0628 -2.41863 -5.95769 -3.19197 0.955048 -0.0780569 -1.1171 -1.04097 
-2.31681 106.65 -9.95581 16.1616 -71.9602 -73.0959 -70.1915 0 88.8779 68.2857 70.1269 16.9089 5.36717 19.2877 5.80645 -151.818 22.7778 176.99 -161.443 62.0125 -176.505 2.65859 -2.65571 -34.7117 -104.382 49.1356 -90.9322 -15.6709 46.1128 10.829 9.80457 -0.622939 -5.40104 0.368488 -1.14973 47.3547 -82.7058 -33.6841 90.8783 -6.35435 -8.10778 10.3308 13.6608 -0.398349 -3.85022 -58.4237 -0.6231 95.8972 2.31796 16.897 -1.88821 3.85219 -3.59068 -0.715771 -0.094817 0.423353 2.5213 -60.5551 3.41911 82.0286 -1.13513 16.2326 -2.31381 -5.91643 -3.19523 0.951225 -0.0931921 -1.15706 -0.982273 
-2.30681 106.661 -9.90562 16.2864 -72.0419 -72.9329 -70.1915 0 88.8779 68.1152 70.0517 17.1927 5.59993 19.2655 5.66414 -151.741 22.8387 177.026 -161.112 62.0543 -176.511 2.64723 -2.67535 -34.6086 -104.634 49.2458 -90.6116 -15.5782 45.9577 10.7977 9.69189 -0.63168 -5.58065 0.362513 -1.13127 47.3788 -83.1913 -33.6351 90.6665 -6.32923 -8.74187 10.1385 13.6496 -0.338465 -3.32903 -58.5223 -0.620307 95.894 2.38898 16.9184 -1.80265 3.57988 -3.50767 -0.688014 -0.118207 0.315113 2.346 -60.7971 3.43517 81.9923 -1.07419 16.0107 -2.28304 -5.9407 -3.17287 0.953071 -0.0644472 -1.05906 -1.06102 
-2.29907 106.659 -9.93554 15.8315 -71.9561 -73.4363 -70.1915 0 88.8779 67.6958 70.0831 17.5998 5.58415 19.3274 5.75893 -151.878 22.8706 177.262 -161.498 62.1067 -176.255 2.65903 -2.69075 -34.8345 -104.63 49.0622 -90.8738 -15.5816 46.1618 10.8372 9.78212 -0.643767 -5.65139 0.354698 -1.10863 47.2807 -82.7719 -33.6926 90.7706 -6.18551 -8.32795 10.4809 13.7042 -0.395065 -3.80992 -58.3908 -0.639656 95.8817 2.3398 16.9183 -1.65934 3.54691 -3.46385 -0.683227 -0.138562 0.26783 2.37158 -60.5671 3.39993 82.0279 -1.11046 16.1502 -2.2122 -5.94542 -3.17405 0.95354 -0.0863024 -1.09054 -0.938157 
-2.30081 106.659 -9.90426 15.9791 -71.9754 -73.1277 -70.1915 0 88.8779 67.798 69.9965 17.7426 5.72623 19.2801 5.58077 -151.964 22.8111 177.355 -161.693 62.0584 -176.119 2.68402 -2.55757 -34.7623 -104.629 49.1714 -90.8736 -15.5421 46.0043 10.8043 9.63595 -0.635094 -5.66074 0.362434 -1.13139 47.3493 -83.0744 -33.5839 90.7168 -6.24465 -8.97468 10.196 13.6621 -0.341756 -3.35493 -58.3541 -0.439525 95.9836 2.34284 17.0669 -1.89941 3.49737 -3.51593 -0.680925 -0.157699 0.220486 2.38468 -60.7887 3.63884 82.1409 -1.15495 15.8196 -2.40377 -5.90412 -3.0261 0.946683 -0.0835971 -1.10304 -0.977408 
-2.30209 106.66 -9.92964 15.9202 -71.9962 -73.129 -70.1915 0 88.8779 68.1578 70.0593 17.4239 5.58975 19.272 5.68914 -152.129 22.7913 177.706 -162.334 62.0698 -175.719 2.69246 -2.54008 -34.828 -104.498 49.1325 -90.9224 -15.5644 45.8962 10.781 9.52702 -0.607211 -5.42045 0.365663 -1.14276 47.223 -83.2912 -33.6648 90.6184 -6.21995 -9.14495 10.1672 13.6279 -0.333871 -3.29372 -58.2808 -0.415744 95.9466 2.42557 17.2054 -1.89452 3.42199 -3.54539 -0.675389 -0.176613 0.173536 2.39713 -60.8026 3.65731 82.1121 -1.07252 15.7971 -2.39762 -5.95997 -3.03156 0.952132 -0.07341 -1.05724 -0.989154 
-2.29251 106.66 -9.96713 15.5533 -71.8094 -73.6246 -70.1915 0 88.8779 67.2247 70.0065 18.3284 5.69376 19.3826 5.5325 -152.038 22.7046 177.341 -161.891 61.9581 -176.227 2.67241 -2.56411 -34.6144 -104.327 49.258 -91.0832 -15.5687 45.6225 10.7252 9.52417 -0.595713 -5.28964 0.364041 -1.13576 47.3913 -82.759 -33.579 90.9002 -6.26679 -8.56582 10.3118 13.7147 -0.384296 -3.71334 -58.1089 -0.536219 95.8886 2.34118 17.0888 -1.69943 3.4348 -3.44543 -0.6723 -0.187446 0.146568 2.40399 -60.3941 3.49236 82.094 -1.08795 16.1044 -2.30508 -5.97237 -3.11086 0.954857 -0.0951992 -1.09588 -0.877077 
-2.27953 106.66 -9.92465 16.2479 -71.8791 -72.8274 -70.1915 0 88.8779 67.6309 69.9054 18.0728 5.75877 19.2763 5.37072 -151.948 22.634 177.471 -162.139 61.9017 -175.893 2.70119 -2.3597 -34.3764 -104.342 49.439 -91.1078 -15.6088 45.852 10.7676 9.24693 -0.582709 -5.33846 0.351117 -1.095 47.5283 -83.1058 -33.4324 90.6983 -6.32114 -8.98784 10.0806 13.5839 -0.330658 -3.2755 -58.2073 -0.467081 95.9312 2.38099 17.1583 -1.9894 3.40854 -3.4749 -0.671175 -0.19501 0.124774 2.40893 -60.6948 3.59993 82.1109 -1.10193 15.8567 -2.52709 -5.94305 -3.0317 0.950517 -0.0994899 -1.13033 -0.894118 
